<svg xmlns="http://www.w3.org/2000/svg" width="128" height="128" viewBox="0 0 128 128">
  <rect width="128" height="128" fill="#182225"/>
  <circle cx="64" cy="54" r="34" fill="#254c5b"/>
  <path d="M30 54c4-25 22-38 45-34 18 3 27 16 28 33-13-12-25-18-39-18-13 0-25 6-34 19z" fill="#6fb0bd"/>
  <circle cx="64" cy="60" r="23" fill="#efd5ba"/>
  <circle cx="55" cy="58" r="3" fill="#1a2124"/>
  <circle cx="73" cy="58" r="3" fill="#1a2124"/>
  <path d="M55 72c6 5 13 5 19 0" fill="none" stroke="#8b4b4b" stroke-width="4" stroke-linecap="round"/>
  <path d="M20 120c5-22 21-35 44-35s39 13 44 35" fill="#5f64c8"/>
  <path d="M40 92c8 9 40 9 48 0" fill="#d978a8"/>
</svg>
